<svg version="1.1" id="Layer_1" xmlns="http://www.w3.org/2000/svg" xmlns:xlink="http://www.w3.org/1999/xlink" x="0px" y="0px"
	 width="100%" viewBox="0 0 576 368" enable-background="new 0 0 576 368" xml:space="preserve">
<path fill="#000000" opacity="1.000000" stroke="none" 
	d="
M352.996155,257.189240 
	C322.336731,257.189758 292.176392,257.192078 262.016052,257.191437 
	C238.779297,257.190918 225.826477,244.215637 225.828476,220.942520 
	C225.831360,187.449570 225.831787,153.956635 225.841797,120.463684 
	C225.848022,99.605530 239.380798,86.029007 260.278687,86.007332 
	C294.438171,85.971901 328.597717,85.973244 362.757202,86.000923 
	C383.573090,86.017784 397.154510,99.666870 397.166779,120.530304 
	C397.186432,154.023254 397.189148,187.516205 397.184967,221.009155 
	C397.182068,244.390961 384.383789,257.179382 360.993439,257.202179 
	C358.494049,257.204590 355.994629,257.194183 352.996155,257.189240 
M346.683563,182.852219 
	C352.811859,180.080978 353.400085,175.257309 348.074585,171.290359 
	C346.442047,170.074295 344.604034,169.498779 342.545166,169.253708 
	C332.679810,168.079514 325.651886,173.281113 319.386475,179.748322 
	C312.701294,186.648773 307.040466,194.262360 307.142181,204.554428 
	C307.221008,212.525604 312.988220,216.215607 320.437469,213.205658 
	C323.788788,211.851517 326.060638,209.137161 328.602875,206.754745 
	C329.994080,205.451004 330.888733,203.388443 333.994019,203.488983 
	C335.279114,210.996201 340.350708,213.173721 347.464233,211.696655 
	C354.813232,210.170670 364.714264,199.231277 366.088348,190.485870 
	C364.326843,192.952728 362.973053,194.761200 361.712097,196.632248 
	C358.889984,200.819885 355.624268,204.541748 351.106689,206.979675 
	C348.969635,208.132935 346.740143,208.892197 344.564484,207.194061 
	C342.413300,205.515045 342.346924,203.047806 343.072357,200.799423 
	C343.933044,198.131882 344.997009,195.407227 346.573090,193.121078 
	C349.126038,189.417877 349.333130,186.186356 346.000549,182.996399 
	C346.000549,182.996399 345.979279,183.019440 346.683563,182.852219 
M256.275940,141.113724 
	C255.919983,149.998337 256.912140,151.839447 262.650116,152.064636 
	C262.530518,145.763763 260.530670,138.657623 266.588837,134.077286 
	C272.213654,129.824585 278.915131,130.239182 285.674469,131.004044 
	C285.863373,133.464676 284.907318,135.058655 284.225372,136.713409 
	C281.880157,142.404480 279.148560,147.969147 277.261139,153.807297 
	C275.149261,160.339737 272.590454,165.401352 264.443268,165.568970 
	C261.483063,165.629868 257.504486,166.841248 257.015900,171.254745 
	C261.216827,173.676193 265.742828,169.574631 269.750671,172.362595 
	C269.564301,175.271591 268.140656,177.577301 267.245026,180.041870 
	C264.234070,188.327591 261.047180,196.566650 259.612518,205.314758 
	C258.961060,209.287201 258.655426,213.343735 261.589783,216.717133 
	C262.711853,218.007111 264.183533,218.884811 265.997986,218.595352 
	C268.029968,218.271179 267.884705,216.485611 268.042145,215.071060 
	C269.431793,202.586563 273.264343,190.695770 276.807434,178.734772 
	C279.174225,170.744797 278.293579,170.248566 287.030914,170.565399 
	C289.835297,170.667099 292.672180,170.169724 295.478577,169.820862 
	C297.558899,169.562241 299.702698,169.265228 301.134827,166.871506 
	C296.080627,165.064606 291.052277,165.541397 286.194580,164.871658 
	C282.732666,164.394363 281.054932,163.053589 282.425690,159.229996 
	C285.120544,151.713104 287.757507,144.168045 290.120239,136.542267 
	C291.541931,131.953690 294.158936,130.507996 298.745239,131.653793 
	C301.472260,132.335068 304.339264,132.457504 307.144104,132.825592 
	C313.467529,133.655441 318.205994,131.013123 322.018829,125.889679 
	C306.741302,126.383835 291.619537,121.826378 276.452148,125.592545 
	C267.813110,127.737663 260.065613,131.302094 256.275940,141.113724 
z"/>
<path fill="#000000" opacity="1.000000" stroke="none" 
	d="
M447.646912,323.930969 
	C451.833405,299.213165 478.263184,294.848053 491.826385,306.114807 
	C498.500580,311.658936 501.910126,318.811584 502.210266,327.414703 
	C502.424866,333.564880 500.797302,335.263733 494.739624,335.307648 
	C484.744934,335.380127 474.749237,335.301819 464.754120,335.337372 
	C459.191193,335.357147 458.569153,336.408447 460.947357,341.479095 
	C463.839264,347.645142 470.985352,351.332886 478.907837,350.636749 
	C483.236237,350.256470 487.460419,349.345367 491.540649,347.787506 
	C494.776245,346.552094 498.099854,346.367889 499.704041,350.005737 
	C501.351074,353.740753 498.702942,355.922150 495.680939,357.436066 
	C485.148010,362.712433 474.197479,363.426910 463.316895,359.094971 
	C450.573425,354.021362 444.766052,340.628510 447.646912,323.930969 
M477.480865,325.075500 
	C479.975342,325.073029 482.471924,325.135864 484.963806,325.054108 
	C489.760315,324.896790 490.655487,323.492981 488.747467,319.285919 
	C486.213806,313.699432 478.871887,309.919159 472.584839,310.963959 
	C464.875946,312.245026 460.738922,316.463348 459.808960,324.538300 
	C465.329742,325.546173 470.942871,324.818329 477.480865,325.075500 
z"/>
<path fill="#000000" opacity="1.000000" stroke="none" 
	d="
M341.715820,345.765503 
	C340.596954,332.689362 350.870911,326.267883 363.955170,325.051575 
	C368.079956,324.668152 372.269775,324.883362 376.426544,324.974304 
	C380.509033,325.063599 381.302277,323.117615 380.199188,319.587341 
	C378.430298,313.926270 373.472168,311.144196 365.735291,311.702759 
	C361.419800,312.014343 357.177002,312.694183 352.993988,313.926666 
	C349.947021,314.824402 346.726898,314.743103 345.672943,310.923645 
	C344.704529,307.414154 346.748993,305.293365 349.906128,304.068359 
	C359.086609,300.506256 368.408783,298.408875 378.094208,301.899841 
	C387.583832,305.320190 393.012024,313.321747 393.203644,324.311707 
	C393.363190,333.459015 393.199921,342.611542 393.255890,351.761261 
	C393.279236,355.579224 393.096771,359.333344 388.805634,360.840027 
	C384.463715,362.364532 382.587585,358.942596 380.305573,355.729370 
	C374.676636,358.385925 369.185272,361.385986 362.678467,361.623260 
	C351.169769,362.042877 343.272034,356.417816 341.715820,345.765503 
M362.267975,335.421967 
	C360.685852,335.914093 359.014954,336.223297 357.541290,336.938812 
	C354.972168,338.186279 353.196838,340.333313 353.530640,343.257019 
	C353.874054,346.264557 355.034424,349.077637 358.233917,350.372040 
	C363.821960,352.632812 375.638153,349.487823 379.429871,344.708496 
	C381.397400,342.228516 381.306305,339.317810 380.369965,336.655731 
	C379.531586,334.272339 376.968323,335.064514 375.087097,335.053772 
	C371.102478,335.031006 367.116608,335.230316 362.267975,335.421967 
z"/>
<path fill="#000000" opacity="1.000000" stroke="none" 
	d="
M201.623901,315.367065 
	C194.400162,310.109772 186.857101,311.434265 179.317993,313.173859 
	C175.418137,314.073761 170.798279,316.022186 169.310272,310.521606 
	C167.940521,305.458160 172.772552,304.463135 176.296692,303.138855 
	C181.007889,301.368591 185.907272,300.489594 190.951553,300.470764 
	C207.308197,300.409698 216.753250,309.912445 216.589706,326.201843 
	C216.502823,334.854462 216.434937,343.508606 216.504623,352.160889 
	C216.534622,355.887421 216.093826,359.262726 212.138428,360.807709 
	C209.304657,361.914581 206.990097,360.419647 203.752853,355.500519 
	C196.929062,359.785309 189.565231,362.374786 181.254776,361.383118 
	C173.157089,360.416809 167.412018,355.753937 165.545059,348.247772 
	C163.666031,340.693115 166.503204,333.902649 173.353394,329.337402 
	C178.123505,326.158386 183.551132,325.451019 189.050812,325.060791 
	C191.535873,324.884430 194.042099,325.002960 196.538742,324.993164 
	C205.452393,324.958130 206.233734,323.590149 201.623901,315.367065 
M196.421890,334.946075 
	C191.963959,335.181763 187.420563,334.609161 183.089279,336.083008 
	C179.072098,337.449951 176.474823,339.920502 177.287537,344.619446 
	C178.042847,348.986389 181.147125,350.503754 185.087601,350.958191 
	C190.801880,351.617157 195.823410,349.935364 200.631149,346.858398 
	C204.293472,344.514435 205.392624,341.304657 204.485687,337.477051 
	C203.524490,333.420441 199.868576,335.498993 196.421890,334.946075 
z"/>
<path fill="#000000" opacity="1.000000" stroke="none" 
	d="
M323.630310,275.518494 
	C328.308350,274.917267 332.310455,275.905365 335.975220,278.036682 
	C338.085144,279.263763 339.613037,281.211945 338.883789,283.838196 
	C338.165833,286.423737 336.071289,287.378265 333.474243,287.306885 
	C331.977295,287.265686 330.479889,287.213989 328.982666,287.213531 
	C322.140350,287.211395 318.660522,291.762299 320.233734,298.411011 
	C320.739990,300.550720 322.120819,300.925964 323.890869,300.970886 
	C326.717773,301.042694 329.570709,300.874725 332.365875,301.204559 
	C335.574463,301.583221 338.149292,303.044922 338.175507,306.828430 
	C338.203583,310.876892 335.312225,311.629486 332.133362,311.959747 
	C331.473724,312.028290 330.802795,312.016846 330.137939,312.002197 
	C318.707520,311.750336 320.221344,311.506348 320.132294,322.333008 
	C320.052887,331.984833 320.114136,341.637756 320.090027,351.290131 
	C320.086304,352.784637 320.177399,354.330139 319.842346,355.762665 
	C319.089630,358.980896 317.170563,361.260498 313.620605,361.094604 
	C310.302246,360.939575 308.517944,358.615265 308.151093,355.561554 
	C307.776001,352.439270 307.900177,349.251526 307.888092,346.092133 
	C307.851257,336.439728 307.796600,326.786743 307.874939,317.134979 
	C307.899658,314.092957 307.364929,311.995392 303.686798,311.799713 
	C300.357849,311.622589 296.991974,310.462067 297.019806,306.506165 
	C297.047485,302.565796 300.464508,301.390961 303.753113,301.231537 
	C307.991028,301.026123 307.752014,298.287262 307.858459,295.342224 
	C308.264709,284.102448 312.701233,278.476868 323.630310,275.518494 
z"/>
<path fill="#000000" opacity="1.000000" stroke="none" 
	d="
M131.655731,341.995667 
	C131.655930,333.499237 131.547134,325.499603 131.707504,317.505402 
	C131.778442,313.969574 131.096268,311.756439 126.899147,311.771210 
	C123.698761,311.782471 120.756889,310.635010 120.841553,306.669037 
	C120.923233,302.842957 123.794289,301.434906 126.980118,301.493866 
	C131.345093,301.574677 131.721329,299.191559 131.719879,295.781067 
	C131.716309,287.372009 134.327484,280.390259 142.828171,276.902252 
	C148.131393,274.726227 153.292648,275.525879 158.378174,277.562012 
	C160.927139,278.582642 162.617233,280.487274 162.017914,283.362488 
	C161.427155,286.196777 159.301239,287.394165 156.428375,287.258514 
	C155.097214,287.195679 153.764130,287.128479 152.432220,287.134338 
	C145.526962,287.164764 141.474930,292.674652 143.348831,299.250000 
	C143.935822,301.309662 145.332230,301.099945 146.834488,301.145660 
	C150.156784,301.246735 153.501038,301.203857 156.791809,301.594574 
	C159.782303,301.949677 161.685913,303.923157 161.689163,306.992035 
	C161.692459,310.095062 159.297607,311.235626 156.675720,311.552277 
	C154.382126,311.829285 152.030518,311.754517 149.711197,311.664124 
	C143.979797,311.440857 143.301651,311.999237 143.289078,317.643829 
	C143.265701,328.140381 143.287613,338.637054 143.289841,349.133667 
	C143.290131,350.466553 143.252319,351.800385 143.289124,353.132172 
	C143.402313,357.229034 142.215195,360.553284 137.620651,361.108307 
	C133.948471,361.551910 131.786774,358.445374 131.681839,352.991119 
	C131.614563,349.493439 131.660828,345.993591 131.655731,341.995667 
z"/>
<path fill="#000000" opacity="1.000000" stroke="none" 
	d="
M420.944885,342.982513 
	C420.909210,346.969269 421.015778,350.469055 420.791565,353.947479 
	C420.531677,357.978394 418.978851,361.321228 414.237610,361.028900 
	C409.736938,360.751465 408.803833,357.429108 408.810455,353.542847 
	C408.835907,338.578857 408.846710,323.614532 408.755402,308.650970 
	C408.733948,305.134644 409.565704,302.264313 413.282776,301.333893 
	C417.080841,300.383270 419.159302,302.647461 420.553864,305.839355 
	C420.742706,306.271545 421.151978,306.607422 421.424347,306.944763 
	C423.109528,307.323669 423.864197,305.966309 424.884521,305.240784 
	C427.483032,303.393158 430.223511,301.830750 433.324310,301.061340 
	C439.094086,299.629608 443.028870,301.384674 443.664368,305.555847 
	C444.226501,309.245667 441.511810,311.454102 435.508972,312.190399 
	C425.454803,313.423706 420.991364,318.437469 420.971039,328.519806 
	C420.961639,333.175232 420.950958,337.830658 420.944885,342.982513 
z"/>
<path fill="#000000" opacity="1.000000" stroke="none" 
	d="
M260.689972,328.999878 
	C260.671448,322.344696 260.657043,316.189453 260.632660,310.034271 
	C260.617706,306.263275 260.595886,302.264221 265.373016,301.396576 
	C269.941315,300.566925 271.828339,303.738495 272.823395,308.065216 
	C277.284363,304.611694 281.547668,301.541382 286.954437,300.595764 
	C290.948273,299.897278 294.160065,300.716156 295.174255,304.891510 
	C296.277954,309.435333 293.173035,311.086487 289.330780,311.796173 
	C286.403900,312.336761 283.458984,312.618164 280.701263,314.028748 
	C275.246155,316.819153 271.885834,320.542664 272.170685,327.235138 
	C272.538208,335.870117 272.305176,344.533020 272.237518,353.183167 
	C272.197693,358.277344 269.804474,361.369476 265.958740,361.071533 
	C261.299744,360.710602 260.725098,357.184387 260.715729,353.455444 
	C260.695709,345.470276 260.697174,337.485077 260.689972,328.999878 
z"/>
<path fill="#000000" opacity="1.000000" stroke="none" 
	d="
M233.925537,358.959412 
	C232.322464,356.608948 232.048676,354.304718 232.044022,351.953278 
	C232.016068,337.805481 232.017792,323.657684 231.978516,309.509949 
	C231.971283,306.902191 232.465103,304.546082 234.599136,302.799866 
	C236.258240,301.442291 238.116699,300.849915 240.169830,301.661652 
	C242.772705,302.690765 244.039566,304.788208 244.106964,307.499359 
	C244.214493,311.824341 244.178970,316.153259 244.177170,320.480499 
	C244.172516,331.632294 244.153473,342.784088 244.139481,353.935883 
	C244.135880,356.804474 243.216125,359.133789 240.456711,360.477997 
	C238.034103,361.658142 235.959976,361.297577 233.925537,358.959412 
z"/>
<path fill="#000000" opacity="1.000000" stroke="none" 
	d="
M233.792389,279.542267 
	C237.995071,276.797180 241.426208,277.485901 244.056564,281.184509 
	C246.131531,284.102142 245.294495,287.034302 242.876099,289.279449 
	C240.273453,291.695648 237.193863,291.937164 234.195602,289.826080 
	C230.967072,287.552856 230.767883,284.069794 233.792389,279.542267 
z"/>
<path fill="#000000" opacity="1.000000" stroke="none" 
	d="
M346.009186,182.983109 
	C340.243469,188.082733 336.526520,194.887878 331.511444,200.631638 
	C328.873657,203.652756 326.276794,206.664093 322.661438,208.538147 
	C320.689117,209.560516 318.522278,210.244995 316.549805,208.739578 
	C314.784943,207.392593 314.567200,205.235138 314.986053,203.254913 
	C317.483154,191.449448 323.315979,181.658188 333.154022,174.529297 
	C336.193909,172.326569 339.875854,171.087372 343.463348,173.146744 
	C346.971893,175.160751 346.184235,178.849930 346.023804,182.583435 
	C345.979279,183.019440 346.000549,182.996399 346.009186,182.983109 
z"/>
</svg>